# xmcd
#
# Track frame offsets: 
#        150
#        16670
#        35935
#        51942
#        66853
#        76410
#        88912
#        101998
#        128075
#        141724
#        153660
#        177925
#        199753
#
# Disc length: 2822 seconds
#
# Revision: 0
# Processed by: cddbd v1.5.2PL0 Copyright (c) Steve Scherf et al.
# Submitted via: ExactAudioCopy v1.0b4
#
DISCID=c00b040d
DTITLE=Kid Ramos - Old School
DYEAR=2018
DGENRE=Blues
TTITLE0=Kid's Jump
TTITLE1=All Your Love
TTITLE2=Tell Me What Ya Want
TTITLE3=Mashed Potatoes And Chili
TTITLE4=Heartbeat
TTITLE5=You Never Call My Name
TTITLE6=Anna
TTITLE7=Wes Side
TTITLE8=Mona Lisa
TTITLE9=Jesus Came By Here
TTITLE10=I Can't Wait Baby
TTITLE11=Weight On My Shoulders
TTITLE12=High Society
EXTD=
EXTT0=
EXTT1=
EXTT2=
EXTT3=
EXTT4=
EXTT5=
EXTT6=
EXTT7=
EXTT8=
EXTT9=
EXTT10=
EXTT11=
EXTT12=
PLAYORDER=
